<svg width="161" height="55" viewBox="0 0 161 55" fill="none" xmlns="http://www.w3.org/2000/svg">
    <g clip-path="url(#clip0_1_40)">
    <path d="M160.259 0H0V55H160.259V0Z" fill="#13294B"/>
    <path d="M10.8287 31.8133L13.8264 31.538C13.9794 32.7309 14.3159 33.7404 14.8359 34.5051C15.3559 35.2699 16.1513 35.9123 17.2525 36.3711C18.3537 36.8605 19.5773 37.0747 20.9538 37.0747C22.1774 37.0747 23.248 36.8911 24.1657 36.5241C25.0834 36.157 25.787 35.6675 26.2458 35.0252C26.7046 34.3828 26.9188 33.7098 26.9188 32.9757C26.9188 32.2109 26.7046 31.5685 26.2458 30.9873C25.8176 30.4367 25.0834 29.9473 24.0739 29.5496C23.4316 29.3049 21.9939 28.9073 19.7914 28.3872C17.589 27.8672 16.0289 27.3472 15.1418 26.8883C13.9794 26.2766 13.1229 25.5424 12.5723 24.6553C12.0217 23.7682 11.7158 22.7588 11.7158 21.6575C11.7158 20.434 12.0523 19.3021 12.7558 18.2315C13.4594 17.1609 14.4688 16.3655 15.7842 15.8149C17.0995 15.2643 18.5984 14.989 20.2197 14.989C21.9939 14.989 23.5845 15.2643 24.961 15.8455C26.3376 16.4267 27.3776 17.2832 28.1118 18.3845C28.8459 19.5163 29.2436 20.7704 29.3048 22.1776L26.2458 22.4223C26.0929 20.8928 25.5117 19.761 24.5634 18.9657C23.6151 18.2009 22.208 17.8033 20.3726 17.8033C18.4455 17.8033 17.0384 18.1703 16.1513 18.8739C15.2642 19.5774 14.8359 20.434 14.8359 21.4434C14.8359 22.2999 15.1418 23.0341 15.7842 23.5847C16.396 24.1353 17.9866 24.7165 20.5867 25.2977C23.1868 25.8789 24.961 26.3989 25.9093 26.8272C27.3164 27.4695 28.3565 28.2955 29.0295 29.2743C29.7024 30.2532 30.0389 31.4156 30.0389 32.7004C30.0389 33.9851 29.6718 35.1781 28.9377 36.3405C28.2035 37.4723 27.1329 38.3594 25.787 39.0018C24.4104 39.6442 22.8504 39.9501 21.1373 39.9501C18.9655 39.9501 17.1301 39.6442 15.6618 39.0018C14.1935 38.3594 13.0311 37.4111 12.2052 36.1264C11.3181 34.8722 10.8593 33.4039 10.8287 31.8133Z" fill="#D57800"/>
    <path d="M34.9026 39.5523V15.4478H38.084V39.5523H34.9026Z" fill="#D57800"/>
    <path d="M41.8159 39.5521V36.585L54.174 21.1372C55.0611 20.036 55.887 19.0877 56.6824 18.2618H43.223V15.417H60.5061V18.2618L46.9855 34.9943L45.5172 36.6767H60.8731V39.5216H41.8159V39.5521Z" fill="#D57800"/>
    <path d="M64.3604 39.5523V15.4478H81.7964V18.2926H67.5417V25.6647H80.8787V28.4789H67.5417V36.7075H82.347V39.5523H64.3604Z" fill="#D57800"/>
    <path d="M102.597 15.4478H105.779V29.366C105.779 31.7826 105.503 33.7097 104.953 35.1474C104.402 36.5851 103.423 37.7475 101.986 38.6346C100.548 39.5217 98.6819 39.9806 96.3571 39.9806C94.0934 39.9806 92.2581 39.5829 90.8203 38.8182C89.3826 38.0534 88.3732 36.9216 87.7308 35.4533C87.119 33.985 86.8131 31.9661 86.8131 29.3966V15.4478H89.9944V29.366C89.9944 31.4461 90.178 33.0062 90.5756 33.985C90.9733 34.9639 91.6463 35.7286 92.5945 36.2792C93.5428 36.8298 94.7052 37.0746 96.0817 37.0746C98.4371 37.0746 100.089 36.5545 101.098 35.4839C102.108 34.4133 102.597 32.3638 102.597 29.3354V15.4478Z" fill="#D57800"/>
    <path d="M111.101 39.5523V15.4478H120.186C121.777 15.4478 123.001 15.5395 123.857 15.6925C125.05 15.876 126.029 16.2737 126.824 16.8243C127.62 17.3749 128.262 18.1396 128.751 19.1491C129.241 20.1585 129.486 21.2292 129.486 22.4528C129.486 24.5023 128.843 26.2459 127.528 27.653C126.212 29.0601 123.857 29.7943 120.462 29.7943H114.283V39.5829H111.101V39.5523ZM114.283 26.9188H120.523C122.572 26.9188 124.041 26.5212 124.928 25.7564C125.784 24.9917 126.212 23.9211 126.212 22.5139C126.212 21.5045 125.968 20.648 125.448 19.9138C124.928 19.2103 124.255 18.7208 123.429 18.4761C122.878 18.3232 121.899 18.262 120.462 18.262H114.283V26.9188Z" fill="#D57800"/>
    <path d="M133.554 39.5523V15.4478H142.639C144.23 15.4478 145.453 15.5395 146.31 15.6925C147.503 15.876 148.482 16.2737 149.277 16.8243C150.072 17.3749 150.715 18.1396 151.204 19.1491C151.693 20.1585 151.938 21.2292 151.938 22.4528C151.938 24.5023 151.296 26.2459 149.98 27.653C148.665 29.0601 146.31 29.7943 142.914 29.7943H136.735V39.5829H133.554V39.5523ZM136.766 26.9188H143.006C145.056 26.9188 146.524 26.5212 147.411 25.7564C148.267 24.9917 148.696 23.9211 148.696 22.5139C148.696 21.5045 148.451 20.648 147.931 19.9138C147.411 19.2103 146.738 18.7208 145.912 18.4761C145.361 18.3232 144.383 18.262 142.945 18.262H136.766V26.9188Z" fill="#D57800"/>
    </g>
    <defs>
    <clipPath id="clip0_1_40">
    <rect width="160.259" height="55" fill="white"/>
    </clipPath>
    </defs>
    </svg>
    