<svg xmlns="http://www.w3.org/2000/svg" width="29" height="26" viewBox="0 0 29 26" fill="none">
<path d="M14.5 26C14.0523 25.9995 13.6151 25.868 13.2453 25.6229C7.76692 22.0106 5.39476 19.5339 4.08635 17.9854C1.29804 14.6846 -0.0368682 11.2958 0.000774048 7.62599C0.04469 3.42063 3.51823 0 7.74392 0C10.8166 0 12.9448 1.6812 14.1842 3.08141C14.2235 3.12531 14.272 3.16052 14.3265 3.18465C14.3809 3.20878 14.4401 3.22127 14.5 3.22127C14.5599 3.22127 14.6191 3.20878 14.6735 3.18465C14.728 3.16052 14.7765 3.12531 14.8158 3.08141C16.0552 1.67984 18.1834 0 21.2561 0C25.4818 0 28.9553 3.42063 28.9992 7.62667C29.0369 11.2971 27.7006 14.6859 24.9137 17.986C23.6052 19.5345 21.2331 22.0113 15.7547 25.6235C15.3849 25.8685 14.9477 25.9997 14.5 26Z" fill="#2D2D2D"/>
</svg>