<svg xmlns="http://www.w3.org/2000/svg" width="19" height="18" viewBox="0 0 19 18" fill="none">
  <path d="M5.60808 10.8235V1.1176M12.1341 14.1558L11.3184 10.8235H16.0743C16.3275 10.8235 16.5773 10.765 16.8039 10.6527C17.0304 10.5404 17.2275 10.3773 17.3795 10.1764C17.5314 9.97552 17.6341 9.74229 17.6795 9.49521C17.7248 9.24813 17.7114 8.99398 17.6405 8.75289L15.7398 2.2823C15.6409 1.94629 15.4349 1.65113 15.1524 1.44113C14.87 1.23112 14.5265 1.1176 14.1735 1.1176H3.16081C2.72811 1.1176 2.31312 1.28803 2.00716 1.5914C1.70119 1.89476 1.5293 2.30622 1.5293 2.73524V9.20583C1.5293 9.63486 1.70119 10.0463 2.00716 10.3497C2.31312 10.653 2.72811 10.8235 3.16081 10.8235H5.4123C5.71583 10.8236 6.0133 10.9077 6.27126 11.0664C6.52922 11.225 6.73744 11.4518 6.87251 11.7213L9.68687 17.2941C10.0716 17.2893 10.4502 17.1985 10.7945 17.0283C11.1388 16.8581 11.4399 16.613 11.6752 16.3112C11.9105 16.0094 12.074 15.6588 12.1535 15.2856C12.233 14.9124 12.2264 14.5262 12.1341 14.1558Z" stroke="#2D2D2D" stroke-width="1.29412" stroke-linecap="round" stroke-linejoin="round"/>
</svg>