<svg width="31" height="28" viewBox="0 0 31 28" fill="none" xmlns="http://www.w3.org/2000/svg">
<path id="Vector" d="M15.5 27C15.0523 26.9995 14.6151 26.868 14.2453 26.6229C8.76692 23.0106 6.39477 20.5339 5.08635 18.9854C2.29804 15.6846 0.963132 12.2958 1.00077 8.62599C1.04469 4.42063 4.51823 1 8.74392 1C11.8166 1 13.9448 2.6812 15.1842 4.08141C15.2235 4.12531 15.272 4.16052 15.3265 4.18465C15.381 4.20878 15.4401 4.22127 15.5 4.22127C15.5599 4.22127 15.6191 4.20878 15.6735 4.18465C15.728 4.16052 15.7765 4.12531 15.8158 4.08141C17.0552 2.67984 19.1834 1 22.2561 1C26.4818 1 29.9553 4.42063 29.9992 8.62667C30.0369 12.2971 28.7006 15.6859 25.9137 18.986C24.6052 20.5345 22.2331 23.0113 16.7547 26.6235C16.3849 26.8685 15.9477 26.9997 15.5 27Z" stroke="#2D2D2D" stroke-width="2"/>
</svg>
