<svg xmlns="http://www.w3.org/2000/svg" width="18" height="18" viewBox="0 0 18 18" fill="none">
  <path d="M5.13738 7.29407V17M11.6634 3.96172L10.8477 7.29407H15.6035C15.8568 7.29407 16.1066 7.35254 16.3332 7.46485C16.5597 7.57716 16.7568 7.74023 16.9088 7.94113C17.0607 8.14204 17.1634 8.37527 17.2087 8.62235C17.2541 8.86943 17.2407 9.12358 17.1698 9.36466L15.2691 15.8352C15.1702 16.1713 14.9642 16.4664 14.6817 16.6764C14.3993 16.8864 14.0558 17 13.7028 17H2.69011C2.2574 17 1.84242 16.8295 1.53645 16.5262C1.23048 16.2228 1.05859 15.8113 1.05859 15.3823V8.91172C1.05859 8.48269 1.23048 8.07124 1.53645 7.76787C1.84242 7.4645 2.2574 7.29407 2.69011 7.29407H4.9416C5.24513 7.29391 5.5426 7.2098 5.80056 7.0512C6.05851 6.8926 6.26673 6.66579 6.40181 6.39628L9.21617 0.823486C9.60086 0.82821 9.9795 0.919064 10.3238 1.08926C10.6681 1.25946 10.9692 1.5046 11.2045 1.80637C11.4398 2.10814 11.6033 2.45873 11.6828 2.83196C11.7623 3.20518 11.7557 3.59139 11.6634 3.96172Z" stroke="#2D2D2D" stroke-width="1.29412" stroke-linecap="round" stroke-linejoin="round"/>
</svg>