<svg xmlns="http://www.w3.org/2000/svg" width="144" height="19" viewBox="0 0 144 19" fill="none">
  <path d="M9.93017 15.9119L14.7462 18.8277C15.6281 19.3621 16.7074 18.5721 16.4753 17.5731L15.1987 12.09L19.4577 8.39594C20.2352 7.72218 19.8174 6.44434 18.7962 6.36303L13.1911 5.88674L10.9978 0.705712C10.6032 -0.235237 9.25709 -0.235237 8.86252 0.705712L6.66922 5.87513L1.06411 6.35141C0.0428884 6.43273 -0.374884 7.71056 0.402637 8.38433L4.66159 12.0784L3.38507 17.5615C3.15297 18.5605 4.23222 19.3505 5.11418 18.8161L9.93017 15.9119Z" fill="#FFC700"/>
  <path d="M40.9653 15.9119L45.7813 18.8277C46.6633 19.3621 47.7425 18.5721 47.5104 17.5731L46.2339 12.09L50.4928 8.39594C51.2704 7.72218 50.8526 6.44434 49.8314 6.36303L44.2263 5.88674L42.033 0.705712C41.6384 -0.235237 40.2922 -0.235237 39.8977 0.705712L37.7044 5.87513L32.0993 6.35141C31.078 6.43273 30.6603 7.71056 31.4378 8.38433L35.6967 12.0784L34.4202 17.5615C34.1881 18.5605 35.2674 19.3505 36.1493 18.8161L40.9653 15.9119Z" fill="#FFC700"/>
  <path d="M72 15.9119L76.816 18.8277C77.6979 19.3621 78.7772 18.5721 78.5451 17.5731L77.2686 12.09L81.5275 8.39594C82.305 7.72218 81.8873 6.44434 80.866 6.36303L75.2609 5.88674L73.0676 0.705712C72.6731 -0.235237 71.3269 -0.235237 70.9323 0.705712L68.739 5.87513L63.1339 6.35141C62.1127 6.43273 61.6949 7.71056 62.4725 8.38433L66.7314 12.0784L65.4549 17.5615C65.2228 18.5605 66.302 19.3505 67.184 18.8161L72 15.9119Z" fill="#FFC700"/>
  <path d="M103.035 15.9119L107.851 18.8277C108.733 19.3621 109.812 18.5721 109.58 17.5731L108.304 12.09L112.563 8.39594C113.34 7.72218 112.922 6.44434 111.901 6.36303L106.296 5.88674L104.103 0.705712C103.708 -0.235237 102.362 -0.235237 101.968 0.705712L99.7742 5.87513L94.1691 6.35141C93.1479 6.43273 92.7301 7.71056 93.5076 8.38433L97.7666 12.0784L96.49 17.5615C96.258 18.5605 97.3372 19.3505 98.2192 18.8161L103.035 15.9119Z" fill="#FFC700"/>
  <path d="M134.07 15.9119L138.886 18.8277C139.768 19.3621 140.847 18.5721 140.615 17.5731L139.338 12.09L143.597 8.39594C144.375 7.72218 143.957 6.44434 142.936 6.36303L137.331 5.88674L135.137 0.705712C134.743 -0.235237 133.397 -0.235237 133.002 0.705712L130.809 5.87513L125.204 6.35141C124.183 6.43273 123.765 7.71056 124.542 8.38433L128.801 12.0784L127.525 17.5615C127.293 18.5605 128.372 19.3505 129.254 18.8161L134.07 15.9119Z" fill="#FFC700"/>
</svg>