<svg xmlns="http://www.w3.org/2000/svg" width="23" height="20" viewBox="0 0 23 20" fill="none">
  <path d="M11.5 19C11.1758 18.9996 10.8592 18.9086 10.5914 18.7389C6.62432 16.2381 4.90655 14.5234 3.95908 13.4514C1.93996 11.1663 0.973302 8.82016 1.00056 6.27953C1.03236 3.36813 3.54768 1 6.60767 1C8.83274 1 10.3738 2.16391 11.2713 3.13328C11.2998 3.16368 11.3349 3.18805 11.3743 3.20476C11.4138 3.22146 11.4566 3.23011 11.5 3.23011C11.5434 3.23011 11.5862 3.22146 11.6257 3.20476C11.6651 3.18805 11.7002 3.16368 11.7287 3.13328C12.6262 2.16297 14.1673 1 16.3923 1C19.4523 1 21.9676 3.36813 21.9994 6.28C22.0267 8.82109 21.059 11.1672 19.0409 13.4519C18.0934 14.5239 16.3757 16.2386 12.4086 18.7394C12.1408 18.9089 11.8242 18.9998 11.5 19Z" stroke="#2D2D2D" stroke-width="1.4"/>
</svg>