<svg width="20" height="24" viewBox="0 0 20 24" fill="none" xmlns="http://www.w3.org/2000/svg">
    <path d="M18.8182 22.4545C18.8182 23.0319 18.3501 23.5 17.7727 23.5C17.1953 23.5 16.7273 23.0319 16.7273 22.4545C16.7273 18.4128 13.4508 15.1364 9.40909 15.1364C5.36737 15.1364 2.09091 18.4128 2.09091 22.4545C2.09091 23.0319 1.62284 23.5 1.04545 23.5C0.468066 23.5 0 23.0319 0 22.4545C0 17.258 4.21259 13.0455 9.40909 13.0455C14.6056 13.0455 18.8182 17.258 18.8182 22.4545ZM9.40909 12C6.23345 12 3.65909 9.42564 3.65909 6.25C3.65909 3.07436 6.23345 0.5 9.40909 0.5C12.5847 0.5 15.1591 3.07436 15.1591 6.25C15.1591 9.42564 12.5847 12 9.40909 12ZM9.40909 9.90909C11.43 9.90909 13.0682 8.27086 13.0682 6.25C13.0682 4.22914 11.43 2.59091 9.40909 2.59091C7.38823 2.59091 5.75 4.22914 5.75 6.25C5.75 8.27086 7.38823 9.90909 9.40909 9.90909Z" fill="white" stroke="#60A8A3"/>
    </svg>
    