<svg width="43" height="35" viewBox="0 0 43 37" fill="none" xmlns="http://www.w3.org/2000/svg">
    <path d="M29.8766 37.0001C31.8353 37.0001 33.4231 35.4123 33.4231 33.4535C33.4231 31.4948 31.8353 29.907 29.8766 29.907C27.9179 29.907 26.33 31.4948 26.33 33.4535C26.33 35.4123 27.9179 37.0001 29.8766 37.0001Z" fill="#3C3C3C"/>
    <path d="M17.7035 37.0001C19.6623 37.0001 21.2501 35.4123 21.2501 33.4535C21.2501 31.4948 19.6623 29.907 17.7035 29.907C15.7448 29.907 14.157 31.4948 14.157 33.4535C14.157 35.4123 15.7448 37.0001 17.7035 37.0001Z" fill="#3C3C3C"/>
    <path d="M41.8294 5.03548C41.4204 4.53949 40.8223 4.24756 40.1799 4.24756H8.275C6.69823 1.64952 3.85266 0 0.729342 0C0.320268 0 0 0.321213 0 0.729341C0 1.1233 0.321213 1.45868 0.729342 1.45868C3.82337 1.45868 6.59714 3.40013 7.64769 6.31938L12.1286 18.6965L13.1215 21.7036C11.8083 22.1854 10.8589 23.4258 10.8589 24.8996C10.8589 26.7674 12.3771 28.2856 14.2599 28.2856H35.9928C36.4019 28.2856 36.7222 27.9644 36.7222 27.5563C36.7222 27.1623 36.4009 26.8269 35.9928 26.8269H14.259C13.1933 26.8269 12.3176 25.9663 12.3176 24.9006C12.3176 23.8349 13.1933 22.9591 14.259 22.9591H32.0069C36.1808 22.9591 39.7718 19.9964 40.5455 15.9095L42.282 6.80215C42.4133 6.17389 42.2385 5.53147 41.8294 5.03548Z" fill="#3C3C3C"/>
    </svg>
    