<svg width="165" height="30" viewBox="0 0 165 30" fill="none" xmlns="http://www.w3.org/2000/svg">
    <path d="M0.0512695 19.6666L3.55549 19.3447C3.73428 20.7393 4.12761 21.9193 4.73548 22.8132C5.34336 23.7071 6.27305 24.458 7.56032 24.9944C8.84758 25.5665 10.2779 25.8168 11.887 25.8168C13.3173 25.8168 14.5688 25.6023 15.6415 25.1732C16.7142 24.7441 17.5366 24.172 18.073 23.4211C18.6093 22.6702 18.8596 21.8835 18.8596 21.0253C18.8596 20.1314 18.6093 19.3805 18.073 18.7011C17.5724 18.0575 16.7142 17.4854 15.5342 17.0205C14.7833 16.7344 13.1027 16.2696 10.5282 15.6617C7.95365 15.0539 6.13002 14.446 5.09306 13.9096C3.73428 13.1945 2.73307 12.3363 2.08944 11.2993C1.44581 10.2624 1.08823 9.08237 1.08823 7.79511C1.08823 6.36481 1.48156 5.04179 2.30398 3.79028C3.1264 2.53877 4.3064 1.60908 5.84396 0.965449C7.38153 0.321817 9.13364 0 11.0288 0C13.1027 0 14.9621 0.321816 16.5712 1.00121C18.1803 1.6806 19.396 2.6818 20.2542 3.96907C21.1124 5.29209 21.5772 6.75814 21.6487 8.40298L18.073 8.68904C17.8942 6.90117 17.2148 5.57815 16.1063 4.64846C14.9978 3.75452 13.353 3.28968 11.2076 3.28968C8.95485 3.28968 7.31001 3.71877 6.27305 4.54119C5.23609 5.36361 4.73548 6.36481 4.73548 7.5448C4.73548 8.54601 5.09306 9.40419 5.84396 10.0478C6.55911 10.6915 8.41849 11.3708 11.4579 12.0502C14.4972 12.7296 16.5712 13.3375 17.6796 13.8381C19.3245 14.589 20.5402 15.5545 21.3269 16.6987C22.1136 17.8429 22.5069 19.2017 22.5069 20.7035C22.5069 22.2053 22.0778 23.5999 21.2196 24.9586C20.3615 26.2817 19.1099 27.3186 17.5366 28.0695C15.9275 28.8204 14.1039 29.178 12.1015 29.178C9.56273 29.178 7.41729 28.8204 5.70093 28.0695C3.98458 27.3186 2.6258 26.2101 1.66035 24.7083C0.623387 23.2423 0.0870269 21.5259 0.0512695 19.6666Z" fill="black"/>
    <path d="M28.1924 28.7132V0.536377H31.9111V28.7132H28.1924Z" fill="black"/>
    <path d="M36.2734 28.7131V25.2446L50.7194 7.18712C51.7564 5.89985 52.7218 4.79137 53.6515 3.82592H37.9183V0.500488H58.1212V3.82592L42.3164 23.3852L40.6001 25.3519H58.5503V28.6773H36.2734V28.7131Z" fill="black"/>
    <path d="M62.6267 28.7132V0.536377H83.0084V3.86181H66.3455V12.4793H81.9357V15.769H66.3455V25.3877H83.6521V28.7132H62.6267Z" fill="black"/>
    <path d="M107.323 0.536377H111.042V16.806C111.042 19.6308 110.72 21.8835 110.077 23.5641C109.433 25.2447 108.289 26.6035 106.608 27.6405C104.928 28.6774 102.746 29.2138 100.029 29.2138C97.3828 29.2138 95.2374 28.7489 93.5568 27.855C91.8762 26.9611 90.6962 25.6381 89.9453 23.9217C89.2301 22.2053 88.8726 19.8454 88.8726 16.8417V0.536377H92.5913V16.806C92.5913 19.2375 92.8059 21.0611 93.2707 22.2053C93.7356 23.3496 94.5222 24.2435 95.6307 24.8871C96.7392 25.5308 98.098 25.8168 99.707 25.8168C102.46 25.8168 104.391 25.209 105.571 23.9575C106.751 22.7059 107.323 20.3102 107.323 16.7702V0.536377Z" fill="black"/>
    <path d="M117.264 28.7132V0.536377H127.884C129.743 0.536377 131.174 0.643649 132.175 0.822436C133.569 1.03698 134.714 1.50183 135.643 2.14546C136.573 2.78909 137.324 3.68302 137.896 4.86302C138.468 6.04301 138.754 7.29452 138.754 8.72482C138.754 11.1206 138.003 13.1587 136.466 14.8036C134.928 16.4484 132.175 17.3066 128.206 17.3066H120.983V28.7489H117.264V28.7132ZM120.983 13.9454H128.277C130.673 13.9454 132.389 13.4805 133.426 12.5866C134.427 11.6927 134.928 10.4412 134.928 8.79633C134.928 7.61634 134.642 6.61513 134.034 5.75695C133.426 4.93453 132.64 4.36242 131.674 4.07636C131.03 3.89757 129.886 3.82606 128.206 3.82606H120.983V13.9454Z" fill="black"/>
    <path d="M143.51 28.7132V0.536377H154.13C155.989 0.536377 157.419 0.643649 158.421 0.822436C159.815 1.03698 160.959 1.50183 161.889 2.14546C162.819 2.78909 163.57 3.68302 164.142 4.86302C164.714 6.04301 165 7.29452 165 8.72482C165 11.1206 164.249 13.1587 162.711 14.8036C161.174 16.4484 158.421 17.3066 154.452 17.3066H147.229V28.7489H143.51V28.7132ZM147.264 13.9454H154.559C156.955 13.9454 158.671 13.4805 159.708 12.5866C160.709 11.6927 161.21 10.4412 161.21 8.79633C161.21 7.61634 160.924 6.61513 160.316 5.75695C159.708 4.93453 158.921 4.36242 157.956 4.07636C157.312 3.89757 156.168 3.82606 154.487 3.82606H147.264V13.9454Z" fill="black"/>
    </svg>
    