<svg xmlns="http://www.w3.org/2000/svg" width="17" height="20" viewBox="0 0 17 20" fill="none">
    <path d="M15.0548 2.08377H11.6388L10.5343 0.66377C10.3911 0.46377 10.1661 0.36377 9.92062 0.36377H6.56602C6.32056 0.36377 6.09556 0.48377 5.95237 0.66377L4.86826 2.08377H1.43184C0.634102 2.08377 0 2.70377 0 3.48377C0 3.66377 0.143184 3.80377 0.327278 3.80377H16.1389C16.323 3.80377 16.4662 3.66377 16.4662 3.48377C16.4866 2.72377 15.8525 2.08377 15.0548 2.08377Z" fill="#2D2D2D"/>
    <path d="M14.9917 4.96362H1.49145C1.32781 4.96362 1.18462 5.10362 1.20508 5.28362L2.22782 17.7836C2.30964 18.6836 3.06647 19.3636 3.98694 19.3636H12.4962C13.4166 19.3636 14.1735 18.6636 14.2553 17.7836L15.278 5.28362C15.2985 5.10362 15.1553 4.96362 14.9917 4.96362ZM5.72561 15.9436C5.72561 16.2636 5.4597 16.5236 5.13242 16.5236C4.80514 16.5236 4.55968 16.2636 4.55968 15.9436V8.38362C4.55968 8.06362 4.82559 7.80362 5.15287 7.80362C5.48015 7.80362 5.74606 8.06362 5.74606 8.38362V15.9436H5.72561ZM8.83475 15.9436C8.83475 16.2636 8.56884 16.5236 8.24156 16.5236C7.91428 16.5236 7.64837 16.2636 7.64837 15.9436V8.38362C7.64837 8.06362 7.91428 7.80362 8.24156 7.80362C8.56884 7.80362 8.83475 8.06362 8.83475 8.38362V15.9436ZM11.9234 15.9436C11.9234 16.2636 11.6575 16.5236 11.3302 16.5236C11.003 16.5236 10.7371 16.2636 10.7371 15.9436V8.38362C10.7371 8.06362 11.003 7.80362 11.3302 7.80362C11.6575 7.80362 11.9234 8.06362 11.9234 8.38362V15.9436Z" fill="#2D2D2D"/>
    </svg>