<svg width="16" height="15" viewBox="0 0 16 17" fill="none" xmlns="http://www.w3.org/2000/svg">
    <path d="M9.94895 3.17041L13.2039 6.44114L4.96527 14.7192L1.71219 11.4497L9.94895 3.17041ZM15.6736 2.38132L14.222 0.922837C14.0886 0.788824 13.9301 0.682482 13.7555 0.609918C13.5809 0.537355 13.3938 0.5 13.2047 0.5C13.0156 0.5 12.8284 0.537355 12.6538 0.609918C12.4793 0.682482 12.3207 0.788824 12.1874 0.922837L10.7971 2.32007L14.0517 5.5908L15.6736 3.96106C15.8826 3.75135 16 3.46731 16 3.17119C16 2.87508 15.8826 2.59104 15.6736 2.38132ZM0.00909051 16.0471C-0.00477071 16.1086 -0.0027525 16.1726 0.014955 16.2331C0.0326625 16.2935 0.0654763 16.3485 0.110305 16.3928C0.155134 16.4371 0.210502 16.4693 0.271193 16.4863C0.331884 16.5033 0.395899 16.5045 0.457209 16.4899L4.08403 15.6061L0.830954 12.3354L0.00909051 16.0471Z" fill="white"/>
    </svg>
    