<svg width="20" height="20" viewBox="0 0 29 20" fill="none" xmlns="http://www.w3.org/2000/svg">
    <path
        d="M2.56977 0.39624C1.70555 0.39624 1 1.15872 1 2.09267V17.6998C1 18.6338 1.70555 19.3962 2.56977 19.3962H26.4302C27.2945 19.3962 28 18.6338 28 17.6998V2.09267C28 1.15872 27.2945 0.39624 26.4302 0.39624H2.56977ZM2.56977 1.07481H26.4302C26.6516 1.07481 26.8498 1.16359 27.0091 1.29747L14.5 12.1758L1.99092 1.29747C2.15024 1.16359 2.34836 1.07481 2.56977 1.07481ZM1.65734 1.87001L10.7129 9.7584L1.64753 17.9119C1.63516 17.8451 1.62791 17.771 1.62791 17.6998V2.09267C1.62791 2.01308 1.64198 1.94396 1.65734 1.87001ZM27.3427 1.87001C27.358 1.94396 27.3721 2.01308 27.3721 2.09267V17.6998C27.3721 17.771 27.3648 17.8451 27.3525 17.9119L18.2871 9.7478L27.3427 1.87001ZM11.2035 10.1825L14.3038 12.8756C14.3595 12.9238 14.4287 12.95 14.5 12.95C14.5713 12.95 14.6405 12.9238 14.6962 12.8756L17.7965 10.1825L27.0189 18.495C26.8579 18.6347 26.6568 18.7177 26.4302 18.7177H2.56977C2.34316 18.7177 2.14213 18.6347 1.9811 18.495L11.2035 10.1825Z"
        fill="black" stroke="black" stroke-width="0.323106" />
</svg>
    