<svg width="20" height="20" viewBox="0 0 21 31" fill="none" xmlns="http://www.w3.org/2000/svg">
    <path d="M10.2356 0C4.59075 0 0 4.59074 0 10.2356C0 11.2453 0.154681 12.2166 0.426485 13.1357C0.699439 14.0587 1.39384 15.4577 2.30302 17.1554C3.2122 18.853 4.32695 20.8097 5.41636 22.6677C7.59519 26.3835 9.65989 29.7047 9.65989 29.7047C9.72152 29.8015 9.8066 29.8813 9.90724 29.9365C10.0079 29.9918 10.1208 30.0207 10.2356 30.0207C10.3504 30.0207 10.4634 29.9918 10.564 29.9365C10.6647 29.8813 10.7498 29.8015 10.8114 29.7047C10.8114 29.7047 12.8761 26.3835 15.0549 22.6677C16.1443 20.8097 17.2591 18.853 18.1683 17.1554C19.0774 15.4577 19.7718 14.0587 20.0448 13.1357C20.3166 12.2166 20.4713 11.2453 20.4713 10.2356C20.4713 4.59074 15.8805 0 10.2356 0ZM10.2356 1.36475C15.143 1.36475 19.1065 5.32831 19.1065 10.2356C19.1065 11.1097 18.9805 11.9522 18.744 12.7519C18.5524 13.3998 17.8693 14.8334 16.9741 16.505C16.0789 18.1765 14.9662 20.1257 13.8821 21.9746C12.0105 25.1666 10.6894 27.2858 10.2356 28.0201C9.78187 27.2858 8.46081 25.1666 6.58919 21.9746C5.50505 20.1257 4.39236 18.1765 3.49718 16.505C2.60199 14.8334 1.91886 13.3998 1.72726 12.7519C1.49076 11.9522 1.36475 11.1097 1.36475 10.2356C1.36475 5.32831 5.32832 1.36475 10.2356 1.36475ZM10.2356 5.45901C7.60565 5.45901 5.45901 7.60565 5.45901 10.2356C5.45901 12.8656 7.60565 15.0123 10.2356 15.0123C12.8656 15.0123 15.0123 12.8656 15.0123 10.2356C15.0123 7.60565 12.8656 5.45901 10.2356 5.45901ZM10.2356 6.82376C12.1281 6.82376 13.6475 8.34321 13.6475 10.2356C13.6475 12.1281 12.1281 13.6475 10.2356 13.6475C8.34321 13.6475 6.82376 12.1281 6.82376 10.2356C6.82376 8.34321 8.34321 6.82376 10.2356 6.82376Z" fill="black"/>
    </svg>
    