<svg width="18" height="21" viewBox="0 0 18 21" fill="none" xmlns="http://www.w3.org/2000/svg">
    <path
        d="M14.6 7.7392V6.6C14.6 5.11479 14.01 3.69041 12.9598 2.6402C11.9096 1.59 10.4852 1 9 1C7.51479 1 6.09041 1.59 5.0402 2.6402C3.99 3.69041 3.4 5.11479 3.4 6.6V7.7392C2.68749 8.05016 2.08103 8.56202 1.6548 9.21217C1.22856 9.86232 1.00102 10.6226 1 11.4V16.2C1.00127 17.2605 1.42311 18.2771 2.17298 19.027C2.92285 19.7769 3.93952 20.1987 5 20.2H13C14.0605 20.1987 15.0772 19.7769 15.827 19.027C16.5769 18.2771 16.9987 17.2605 17 16.2V11.4C16.999 10.6226 16.7714 9.86232 16.3452 9.21217C15.919 8.56202 15.3125 8.05016 14.6 7.7392ZM5 6.6C5 5.53913 5.42143 4.52172 6.17157 3.77157C6.92172 3.02143 7.93913 2.6 9 2.6C10.0609 2.6 11.0783 3.02143 11.8284 3.77157C12.5786 4.52172 13 5.53913 13 6.6V7.4H5V6.6ZM15.4 16.2C15.4 16.8365 15.1471 17.447 14.6971 17.8971C14.247 18.3471 13.6365 18.6 13 18.6H5C4.36348 18.6 3.75303 18.3471 3.30294 17.8971C2.85286 17.447 2.6 16.8365 2.6 16.2V11.4C2.6 10.7635 2.85286 10.153 3.30294 9.70294C3.75303 9.25285 4.36348 9 5 9H13C13.6365 9 14.247 9.25285 14.6971 9.70294C15.1471 10.153 15.4 10.7635 15.4 11.4V16.2Z"
        fill="#494949" stroke="white" stroke-width="0.3" />
    <path
        d="M8.99922 12.2002C8.78705 12.2002 8.58356 12.2845 8.43353 12.4345C8.2835 12.5845 8.19922 12.788 8.19922 13.0002V14.6002C8.19922 14.8124 8.2835 15.0159 8.43353 15.1659C8.58356 15.3159 8.78705 15.4002 8.99922 15.4002C9.21139 15.4002 9.41487 15.3159 9.5649 15.1659C9.71493 15.0159 9.79922 14.8124 9.79922 14.6002V13.0002C9.79922 12.788 9.71493 12.5845 9.5649 12.4345C9.41487 12.2845 9.21139 12.2002 8.99922 12.2002Z"
        fill="#494949" stroke="white" stroke-width="0.3" />
</svg>
    