<svg xmlns="http://www.w3.org/2000/svg" width="20" height="23" viewBox="0 0 20 23" fill="none">
    <path d="M18.8709 16.4066C18.5798 15.1931 18.025 14.0562 17.2447 13.0743C16.4644 12.0924 15.4772 11.2889 14.3511 10.7191C15.3332 9.61489 15.86 8.18865 15.828 6.72109C15.7959 5.25352 15.2072 3.85092 14.1779 2.78938C13.6431 2.23514 13.0016 1.79144 12.2907 1.4842C11.5799 1.17697 10.814 1.01236 10.0378 1H9.93345C8.79156 1.01379 7.67777 1.35069 6.72486 1.97054C5.77195 2.59039 5.02011 3.46703 4.55896 4.49599C4.09781 5.52494 3.9468 6.66279 4.12394 7.77392C4.30107 8.88504 4.79887 9.92256 5.558 10.7628C4.46296 11.3315 3.5027 12.1222 2.74048 13.0829C1.97827 14.0437 1.4314 15.1526 1.13592 16.3366C0.985226 16.8437 0.95941 17.3788 1.06061 17.8977C1.1618 18.4166 1.3871 18.9043 1.71783 19.3203C3.60127 21.6959 8.41426 21.9694 9.84461 22H10.2C14.6043 22 17.2895 20.6109 18.2623 19.4056C18.5979 18.9891 18.8282 18.4999 18.934 17.9784C19.0398 17.4569 19.0182 16.9182 18.8709 16.4066ZM9.93567 2.3125H10.0156C10.6153 2.32198 11.207 2.44912 11.7561 2.6865C12.3053 2.92388 12.8009 3.26673 13.2139 3.695C13.8406 4.34067 14.2606 5.15368 14.4216 6.03275C14.5826 6.91183 14.4774 7.81812 14.1191 8.63874C13.7609 9.45936 13.1655 10.158 12.407 10.6478C11.6485 11.1375 10.7604 11.3966 9.85349 11.3928C9.25351 11.3834 8.66145 11.2563 8.11193 11.0189C7.5624 10.7815 7.06642 10.4386 6.65298 10.0103C6.03072 9.36936 5.61209 8.56336 5.44852 7.69132C5.28494 6.81928 5.38355 5.91917 5.73221 5.10155C6.08088 4.28394 6.66443 3.58444 7.41117 3.08896C8.15792 2.59348 9.03535 2.32361 9.93567 2.3125ZM17.2185 18.5897C16.0124 20.0859 12.5543 20.7247 9.86904 20.6853C7.20379 20.6481 3.93665 19.9722 2.77949 18.5131C2.57393 18.2558 2.43533 17.9528 2.37572 17.6307C2.31611 17.3085 2.3373 16.9769 2.43745 16.6647C2.70238 15.5759 3.21877 14.5621 3.94645 13.702C4.67414 12.8419 5.59349 12.1587 6.63299 11.7056C7.5759 12.34 8.68727 12.6877 9.82906 12.7053H9.93345C11.1248 12.7053 12.2875 12.3457 13.265 11.675C14.3351 12.1257 15.2829 12.8175 16.0321 13.6948C16.7812 14.5721 17.3108 15.6103 17.5783 16.7259C17.6771 17.0419 17.696 17.377 17.6333 17.7018C17.5706 18.0267 17.4282 18.3315 17.2185 18.5897Z" fill="#6A6A6A" stroke="white" stroke-width="0.4"/>
    </svg>