<svg xmlns="http://www.w3.org/2000/svg" width="27" height="25" viewBox="0 0 27 25" fill="none">
    <path
        d="M23.7403 1H13.5499C12.3155 1 11.3438 1.99803 11.3438 3.20616V8.59026C11.3438 9.7984 12.3155 10.7702 13.5237 10.7964V12.1359C13.5237 12.7399 13.8913 13.2652 14.4429 13.5016C14.6267 13.5804 14.8106 13.6067 15.0207 13.6067C15.4146 13.6067 15.7823 13.4491 16.0712 13.1602L18.4613 10.7702H23.7928C25.0272 10.7702 25.999 9.77213 25.999 8.56399V3.23243C25.9465 1.99803 24.9484 1 23.7403 1ZM24.3969 8.61652C24.3969 8.98421 24.0817 9.29938 23.714 9.29938H18.0936C17.8835 9.29938 17.6996 9.37817 17.542 9.53576L15.047 12.0046V10.0348C15.047 9.61455 14.7055 9.27312 14.2853 9.27312H13.5762C13.2085 9.27312 12.8933 8.95795 12.8933 8.59026V3.23243C12.8933 2.86473 13.2085 2.54957 13.5762 2.54957H23.7666C24.1343 2.54957 24.4494 2.86473 24.4494 3.23243V8.61652H24.3969Z"
        fill="#6A6A6A" stroke="white" stroke-width="0.6" />
    <path
        d="M15.3346 6.98811C15.9293 6.98811 16.4114 6.506 16.4114 5.91129C16.4114 5.31658 15.9293 4.83447 15.3346 4.83447C14.7399 4.83447 14.2578 5.31658 14.2578 5.91129C14.2578 6.506 14.7399 6.98811 15.3346 6.98811Z"
        fill="#6A6A6A" stroke="white" stroke-width="0.6" />
    <path
        d="M18.6452 6.98811C19.2399 6.98811 19.722 6.506 19.722 5.91129C19.722 5.31658 19.2399 4.83447 18.6452 4.83447C18.0505 4.83447 17.5684 5.31658 17.5684 5.91129C17.5684 6.506 18.0505 6.98811 18.6452 6.98811Z"
        fill="#6A6A6A" stroke="white" stroke-width="0.6" />
    <path
        d="M21.9284 6.98811C22.5231 6.98811 23.0052 6.506 23.0052 5.91129C23.0052 5.31658 22.5231 4.83447 21.9284 4.83447C21.3337 4.83447 20.8516 5.31658 20.8516 5.91129C20.8516 6.506 21.3337 6.98811 21.9284 6.98811Z"
        fill="#6A6A6A" stroke="white" stroke-width="0.6" />
    <path
        d="M16.9907 17.7304L14.9159 16.0757C14.4694 15.7081 13.8916 15.5242 13.34 15.5242C12.6046 15.5242 11.8955 15.8394 11.3965 16.4172C11.2915 16.5485 11.2127 16.6273 11.1339 16.7323C10.845 16.5485 10.3722 16.2071 9.61057 15.4454C8.84891 14.6838 8.50748 14.211 8.32364 13.9221C8.40243 13.8433 8.50748 13.7645 8.6388 13.6595C9.68936 12.7665 9.84694 11.2169 8.98023 10.1401L7.29935 8.06527C6.80033 7.4612 6.09121 7.09351 5.30329 7.09351C4.96186 7.09351 4.62043 7.1723 4.279 7.30362C3.41229 7.67131 2.20415 8.72187 1.96778 8.9845C0.365683 10.5866 1.10107 12.9503 1.70514 14.1847C2.46679 15.7868 3.83251 17.5991 5.64472 19.4113C7.37814 21.1447 10.7136 24.06 13.6027 24.06C14.5744 24.06 15.4411 23.7185 16.0715 23.0882C16.3341 22.8256 17.3847 21.6437 17.7524 20.777C18.1989 19.7002 17.8837 18.4395 16.9907 17.7304ZM16.3341 20.1466C16.0977 20.7245 15.2573 21.7225 14.9947 21.9851C14.627 22.3528 14.1542 22.5104 13.6027 22.5104C11.843 22.5104 9.24287 20.8295 6.72154 18.3082C3.43856 15.0252 1.54756 11.5584 3.0446 10.0613C3.30724 9.79868 4.33153 8.95824 4.88307 8.6956C5.01439 8.64307 5.14571 8.61681 5.27703 8.61681C5.59219 8.61681 5.8811 8.74813 6.06494 9.01077L7.71957 11.0856C8.061 11.5058 8.00847 12.1362 7.58825 12.4776C7.16803 12.8453 6.87912 13.1079 6.80033 13.1867C6.17 13.8171 7.08923 15.1302 8.48122 16.5222C9.55804 17.5991 10.6086 18.4132 11.3177 18.4132C11.5278 18.4132 11.6854 18.3607 11.8167 18.2031C11.8955 18.1243 12.1582 17.8354 12.5259 17.4152C12.736 17.1788 13.0249 17.0475 13.2875 17.0475C13.4976 17.0475 13.734 17.1263 13.9178 17.2576L15.9927 18.9122C16.3866 19.2274 16.518 19.7264 16.3341 20.1466Z"
        fill="#6A6A6A" stroke="white" stroke-width="0.6" />
</svg>