<svg xmlns="http://www.w3.org/2000/svg" width="20" height="21" viewBox="0 0 20 21" fill="none">
    <path
        d="M10.1947 20.2015C9.87878 20.0339 9.5629 19.8684 9.24702 19.7008C8.48632 19.299 7.72348 18.8971 6.96278 18.4953C6.04522 18.0096 5.12766 17.5261 4.20794 17.0405C3.41287 16.6193 2.61564 16.2003 1.82056 15.7791C1.43592 15.5771 1.05772 15.3558 0.666624 15.1688C0.660177 15.1667 0.65588 15.1624 0.651582 15.1602C0.722494 15.2849 0.793407 15.4074 0.864319 15.532C0.864319 15.1968 0.864319 14.8616 0.864319 14.5263C0.864319 13.7248 0.864319 12.9254 0.864319 12.1239C0.864319 11.1526 0.864319 10.1813 0.864319 9.20791C0.864319 8.372 0.864319 7.53395 0.864319 6.69804C0.864319 6.29191 0.879361 5.88362 0.864319 5.47749C0.864319 5.47104 0.864319 5.46675 0.864319 5.4603C0.649433 5.58493 0.432398 5.70742 0.217512 5.83205C0.533395 5.99966 0.849277 6.16512 1.16516 6.33274C1.92586 6.73457 2.6887 7.13641 3.4494 7.54039C4.36696 8.02604 5.28452 8.51168 6.20423 8.99517C6.99931 9.41635 7.79654 9.83752 8.59162 10.2566C8.97626 10.4585 9.35446 10.6799 9.74555 10.8668C9.752 10.869 9.7563 10.8733 9.7606 10.8754C9.68968 10.7508 9.61877 10.6283 9.54786 10.5037C9.54786 10.8389 9.54786 11.1741 9.54786 11.5072C9.54786 12.3066 9.54786 13.1081 9.54786 13.9075C9.54786 14.8787 9.54786 15.85 9.54786 16.8213C9.54786 17.6572 9.54786 18.4931 9.54786 19.329C9.54786 19.7352 9.53712 20.1435 9.54786 20.5496C9.54786 20.556 9.54786 20.5603 9.54786 20.5668C9.54786 20.7924 9.74555 21.0073 9.97763 20.9965C10.2097 20.9858 10.4074 20.8074 10.4074 20.5668C10.4074 20.2316 10.4074 19.8963 10.4074 19.5633C10.4074 18.7639 10.4074 17.9624 10.4074 17.163C10.4074 16.1917 10.4074 15.2204 10.4074 14.2491C10.4074 13.4132 10.4074 12.5773 10.4074 11.7414C10.4074 11.3353 10.4181 10.927 10.4074 10.5209C10.4074 10.5144 10.4074 10.5101 10.4074 10.5037C10.4074 10.3575 10.3257 10.2028 10.1947 10.1319C9.87878 9.96431 9.5629 9.79885 9.24702 9.63123C8.48632 9.2294 7.72348 8.82756 6.96278 8.42358C6.04522 7.93793 5.12766 7.45229 4.20794 6.9688C3.41287 6.54762 2.61564 6.12644 1.82056 5.70742C1.43592 5.50328 1.05342 5.29484 0.666624 5.09714C0.660177 5.09499 0.65588 5.09069 0.651582 5.08855C0.367932 4.93813 0.00477524 5.12293 0.00477524 5.4603C0.00477524 5.79552 0.00477524 6.13074 0.00477524 6.46596C0.00477524 7.26749 0.00477524 8.06686 0.00477524 8.86839C0.00477524 9.83967 0.00477524 10.811 0.00477524 11.7844C0.00477524 12.6203 0.00477524 13.4584 0.00477524 14.2943C0.00477524 14.7004 -0.00596905 15.1087 0.00477524 15.5148C0.00477524 15.5213 0.00477524 15.5256 0.00477524 15.532C0.00477524 15.6781 0.0864318 15.8328 0.217512 15.9038C0.533395 16.0714 0.849277 16.2368 1.16516 16.4044C1.92586 16.8063 2.6887 17.2081 3.4494 17.6099C4.36696 18.0956 5.28452 18.5791 6.20423 19.0647C6.99931 19.4859 7.79654 19.9049 8.59162 20.3261C8.97626 20.5302 9.35876 20.7387 9.74555 20.9364C9.752 20.9385 9.7563 20.9428 9.7606 20.945C9.95829 21.0503 10.2376 21.003 10.3494 20.7903C10.4547 20.5904 10.4074 20.3132 10.1947 20.2015Z"
        fill="black" />
    <path
        d="M19.3036 15.1623C18.9877 15.33 18.6718 15.4954 18.3559 15.663C17.5952 16.0649 16.8324 16.4667 16.0717 16.8685C15.1541 17.3542 14.2366 17.8377 13.3168 18.3233C12.5218 18.7445 11.7245 19.1635 10.9295 19.5847C10.5448 19.7867 10.1494 19.9779 9.77552 20.195C9.77123 20.1971 9.76478 20.2014 9.76048 20.2036C9.97537 20.3282 10.1924 20.4507 10.4073 20.5753C10.4073 20.2401 10.4073 19.9049 10.4073 19.5718C10.4073 18.7724 10.4073 17.9709 10.4073 17.1715C10.4073 16.2002 10.4073 15.229 10.4073 14.2577C10.4073 13.4218 10.4073 12.5859 10.4073 11.75C10.4073 11.3438 10.4245 10.9355 10.4073 10.5294C10.4073 10.523 10.4073 10.5187 10.4073 10.5122C10.3364 10.6368 10.2655 10.7593 10.1946 10.884C10.5104 10.7164 10.8263 10.5509 11.1422 10.3833C11.9029 9.98145 12.6657 9.57961 13.4264 9.17562C14.344 8.68998 15.2616 8.20434 16.1813 7.72085C16.9764 7.29967 17.7736 6.87849 18.5687 6.45947C18.9533 6.25747 19.3487 6.06623 19.7226 5.84919C19.7269 5.84704 19.7333 5.84274 19.7376 5.8406C19.5227 5.71596 19.3057 5.59348 19.0908 5.46884C19.0908 5.80406 19.0908 6.13929 19.0908 6.47451C19.0908 7.27603 19.0908 8.07541 19.0908 8.87693C19.0908 9.84822 19.0908 10.8195 19.0908 11.7929C19.0908 12.6288 19.0908 13.4669 19.0908 14.3028C19.0908 14.7089 19.0801 15.1172 19.0908 15.5234C19.0908 15.5298 19.0908 15.5341 19.0908 15.5405C19.0908 15.7662 19.2885 15.9811 19.5206 15.9703C19.7527 15.9596 19.9504 15.7812 19.9504 15.5405C19.9504 15.2053 19.9504 14.8701 19.9504 14.5349C19.9504 13.7334 19.9504 12.934 19.9504 12.1325C19.9504 11.1612 19.9504 10.1899 19.9504 9.21645C19.9504 8.38055 19.9504 7.54249 19.9504 6.70659C19.9504 6.30045 19.9611 5.89217 19.9504 5.48603C19.9504 5.47959 19.9504 5.47529 19.9504 5.46884C19.9504 5.13147 19.5872 4.94667 19.3036 5.09709C18.9877 5.2647 18.6718 5.43016 18.3559 5.59777C17.5952 5.99961 16.8324 6.40145 16.0717 6.80543C15.1541 7.29108 14.2366 7.77672 13.3168 8.26021C12.5218 8.68139 11.7245 9.10256 10.9295 9.52159C10.5448 9.72573 10.1516 9.91698 9.77552 10.1319C9.77123 10.134 9.76478 10.1383 9.76048 10.1405C9.62725 10.2114 9.54774 10.3661 9.54774 10.5122C9.54774 10.8474 9.54774 11.1827 9.54774 11.5157C9.54774 12.3151 9.54774 13.1166 9.54774 13.916C9.54774 14.8873 9.54774 15.8586 9.54774 16.8299C9.54774 17.6658 9.54774 18.5017 9.54774 19.3376C9.54774 19.7437 9.537 20.152 9.54774 20.5581C9.54774 20.5646 9.54774 20.5689 9.54774 20.5753C9.54774 20.9127 9.9109 21.0975 10.1946 20.9471C10.5104 20.7795 10.8263 20.614 11.1422 20.4464C11.9029 20.0446 12.6657 19.6427 13.4264 19.2409C14.344 18.7552 15.2616 18.2717 16.1813 17.7861C16.9764 17.3649 17.7736 16.9459 18.5687 16.5247C18.9533 16.3227 19.3465 16.1293 19.7226 15.9144C19.7269 15.9123 19.7333 15.908 19.7376 15.9059C19.9375 15.8006 20.0148 15.5062 19.8924 15.3171C19.7613 15.1151 19.5163 15.0506 19.3036 15.1623Z"
        fill="black" />
    <path
        d="M19.3047 5.09281C18.9888 5.26042 18.6729 5.42588 18.357 5.59349C17.5963 5.99533 16.8335 6.39717 16.0728 6.80115C15.1552 7.28679 14.2377 7.77244 13.3179 8.25593C12.5229 8.67711 11.7256 9.09828 10.9306 9.51731C10.5459 9.7193 10.1527 9.91055 9.77662 10.1276C9.77233 10.1297 9.76588 10.134 9.76158 10.1362C9.90556 10.1362 10.0517 10.1362 10.1957 10.1362C9.87977 9.96857 9.56389 9.80311 9.248 9.6355C8.48731 9.23366 7.72446 8.83182 6.96377 8.42784C6.0462 7.9422 5.12864 7.45655 4.20893 6.97306C3.41385 6.55188 2.61663 6.13071 1.82155 5.71168C1.4369 5.50969 1.0587 5.28835 0.66761 5.1014C0.661164 5.09925 0.656866 5.09496 0.652568 5.09281C0.652568 5.33993 0.652568 5.58705 0.652568 5.83416C0.96845 5.66655 1.28433 5.50109 1.60021 5.33348C2.36091 4.93164 3.12376 4.52981 3.88445 4.12797C4.80202 3.64233 5.71958 3.15883 6.63929 2.67319C7.43437 2.25202 8.23159 1.83299 9.02667 1.41181C9.41132 1.20982 9.80456 1.01857 10.1806 0.801536C10.1849 0.799387 10.1914 0.79509 10.1957 0.792941C10.0517 0.792941 9.90556 0.792941 9.76158 0.792941C10.0775 0.960552 10.3933 1.12601 10.7092 1.29362C11.4699 1.69546 12.2328 2.0973 12.9935 2.49914C13.911 2.98478 14.8286 3.46827 15.7483 3.95391C16.5434 4.37509 17.3406 4.79412 18.1357 5.21529C18.5203 5.41944 18.9028 5.62787 19.2896 5.82557C19.2961 5.82772 19.3004 5.83202 19.3047 5.83416C19.5024 5.93946 19.7817 5.89218 19.8935 5.67945C19.9987 5.48175 19.9515 5.20455 19.7387 5.09066C19.4186 4.9209 19.1005 4.75329 18.7803 4.58353C18.0175 4.17954 17.2547 3.77771 16.4897 3.37372C15.5678 2.88808 14.6481 2.40029 13.7262 1.91465C12.9333 1.49562 12.1404 1.07659 11.3453 0.657563C10.9671 0.457719 10.591 0.247131 10.2064 0.0558821C9.97432 -0.0580074 9.81101 0.0215004 9.61976 0.122497C9.42206 0.227791 9.22437 0.330936 9.02882 0.43623C8.3111 0.814429 7.59553 1.19478 6.87781 1.57298C5.9581 2.05862 5.03839 2.54426 4.11868 3.0299C3.29137 3.46612 2.46406 3.90449 1.63675 4.34071C1.18334 4.57923 0.732076 4.81775 0.278667 5.05843C0.257178 5.06917 0.235689 5.07992 0.21635 5.09281C-0.063002 5.24108 -0.063002 5.68804 0.21635 5.83416C0.53653 6.00392 0.854561 6.17154 1.17474 6.3413C1.93759 6.74528 2.70043 7.14712 3.46542 7.5511C4.38729 8.03889 5.307 8.52454 6.22886 9.01233C7.02179 9.43135 7.81472 9.85038 8.60979 10.2694C8.98799 10.4693 9.36404 10.682 9.74869 10.8711C9.98077 10.985 10.1441 10.9055 10.3353 10.8045C10.533 10.6992 10.7307 10.596 10.9263 10.4907C11.644 10.1125 12.3596 9.73219 13.0773 9.354C13.997 8.86835 14.9167 8.38271 15.8364 7.89707C16.6637 7.4587 17.491 7.02248 18.3183 6.58412C18.7717 6.34559 19.223 6.10492 19.6764 5.8664C19.6979 5.85565 19.7194 5.84491 19.7387 5.83202C19.9386 5.72672 20.0159 5.43233 19.8935 5.24323C19.7624 5.04338 19.5174 4.97892 19.3047 5.09281Z"
        fill="black" />
    <path
        d="M5.42196 8.35915C5.73784 8.19154 6.05372 8.02607 6.3696 7.85846C7.1303 7.45663 7.89315 7.05479 8.65384 6.6508C9.5714 6.16516 10.489 5.67952 11.4087 5.19603C12.2038 4.77485 13.001 4.35367 13.7961 3.93465C14.1807 3.7305 14.5739 3.53926 14.95 3.32437C14.9543 3.32222 14.9607 3.31792 14.965 3.31577C15.1649 3.21048 15.2422 2.91609 15.1198 2.72699C14.9887 2.52499 14.7437 2.46053 14.531 2.57227C14.2151 2.73988 13.8992 2.90534 13.5833 3.07295C12.8226 3.47479 12.0598 3.87663 11.2991 4.28061C10.3815 4.76625 9.46396 5.2519 8.54425 5.73539C7.74917 6.15657 6.95195 6.57774 6.15687 6.99677C5.77222 7.20091 5.37898 7.39216 5.00293 7.60705C4.99863 7.6092 4.99218 7.61349 4.98789 7.61564C4.78804 7.72094 4.71068 8.01533 4.83317 8.20443C4.96425 8.40857 5.20922 8.47304 5.42196 8.35915Z"
        fill="black" />
</svg>