<svg xmlns="http://www.w3.org/2000/svg" width="22" height="22" viewBox="0 0 22 22" fill="none">
    <path
        d="M11.0002 6.15991C8.33134 6.15991 6.16016 8.33109 6.16016 10.9999C6.16016 13.6687 8.33134 15.8399 11.0002 15.8399C13.669 15.8399 15.8402 13.6687 15.8402 10.9999C15.8402 8.33109 13.669 6.15991 11.0002 6.15991ZM11.0002 7.03991C13.1837 7.03991 14.9602 8.81641 14.9602 10.9999C14.9602 13.1834 13.1837 14.9599 11.0002 14.9599C8.81666 14.9599 7.04016 13.1834 7.04016 10.9999C7.04016 8.81641 8.81666 7.03991 11.0002 7.03991Z"
        fill="#6A6A6A" />
    <path
        d="M20.8525 8.8781L18.8481 8.57274C18.6993 8.08874 18.504 7.61728 18.2655 7.16738L19.4674 5.53344C19.6682 5.32092 19.7883 5.04944 19.8057 4.76806C19.8255 4.45302 19.7182 4.16152 19.5034 3.94702L18.053 2.49634C17.6359 2.07966 16.9277 2.09748 16.4663 2.53264L14.8326 3.7345C14.3829 3.49602 13.9113 3.30044 13.427 3.15194L13.1217 1.1473C13.1039 0.51326 12.615 0 12.0256 0H9.97436C9.38498 0 8.89636 0.51326 8.87832 1.14752L8.57296 3.15216C8.08896 3.30066 7.6175 3.49624 7.1676 3.73472L5.53366 2.53286C5.07254 2.09704 4.36392 2.07944 3.94724 2.49656L2.49678 3.94702C2.07988 4.3637 2.09748 5.07232 2.53308 5.53344L3.73494 7.16738C3.49646 7.61706 3.30066 8.08874 3.15238 8.57274L1.14774 8.8781C0.51326 8.89636 0 9.38498 0 9.97436V12.0256C0 12.615 0.51326 13.1036 1.14752 13.1217L3.15216 13.427C3.30066 13.9113 3.49624 14.3829 3.73472 14.8326L2.53286 16.4663C2.09748 16.9277 2.07988 17.6361 2.49656 18.053L3.94702 19.5034C4.16262 19.719 4.45478 19.8264 4.76784 19.8057C5.04944 19.7883 5.32092 19.6682 5.53344 19.4674L7.16738 18.2655C7.61706 18.504 8.08874 18.6996 8.57274 18.8478L8.8781 20.8525C8.89636 21.4867 9.38498 22 9.97414 22H12.0254C12.6148 22 13.1034 21.4867 13.1215 20.8525L13.4268 18.8478C13.9106 18.6993 14.3823 18.504 14.8322 18.2655L16.4661 19.4674C16.9279 19.9027 17.6361 19.9199 18.0528 19.5034L19.5032 18.053C19.9201 17.6363 19.9027 16.9279 19.4671 16.4663L18.2653 14.8326C18.5038 14.3827 18.6993 13.9113 18.8478 13.427L20.8523 13.1217C21.4865 13.1036 21.9998 12.6148 21.9998 12.0256V9.97436C22 9.38498 21.4867 8.89636 20.8525 8.8781ZM18.1524 12.6432L18.0781 12.921C17.917 13.5227 17.6763 14.1033 17.3626 14.6465L17.2192 14.8955L18.7867 17.0256L18.8192 17.0625C18.9358 17.1791 18.9642 17.3479 18.8811 17.431L17.4306 18.8813C17.3477 18.9647 17.1787 18.9358 17.0621 18.8197L14.8953 17.2196L14.6458 17.3631C14.1018 17.6772 13.5216 17.9177 12.9208 18.0783L12.6434 18.1522L12.2456 20.7656L12.2423 20.816C12.2423 20.981 12.1431 21.1202 12.0256 21.1202H9.97436C9.85688 21.1202 9.75766 20.981 9.75766 20.816L9.35704 18.1522L9.07874 18.0778C8.47748 17.9172 7.89712 17.6766 7.35372 17.3626L7.10468 17.2192L4.97464 18.7867L4.93768 18.8192C4.873 18.8839 4.79336 18.9224 4.71394 18.9273C4.67104 18.9286 4.61186 18.9235 4.56918 18.8811L3.11872 17.4306C3.03578 17.3474 3.06394 17.1787 3.18054 17.0621L4.78082 14.8953L4.63716 14.6458C4.323 14.102 4.08254 13.5219 3.92216 12.9208L3.8478 12.643L1.2342 12.2452L1.18404 12.2419C1.01926 12.2423 0.88 12.1431 0.88 12.0256V9.97436C0.88 9.85688 1.01926 9.75766 1.18426 9.75766L3.8478 9.35704L3.92216 9.07874C4.08254 8.47792 4.32322 7.89734 4.63716 7.35372L4.78082 7.10468L3.2131 4.97442L3.18054 4.93746C3.06394 4.82086 3.03556 4.65212 3.1185 4.56896L4.56896 3.1185C4.65168 3.03534 4.82064 3.0635 4.93746 3.18032L7.10424 4.78082L7.3535 4.63694C7.89712 4.323 8.47748 4.08232 9.07852 3.92194L9.3566 3.84758L9.75414 1.23332L9.75722 1.18382C9.75722 1.01882 9.85644 0.87956 9.97392 0.87956H12.0252C12.1427 0.87956 12.2419 1.01882 12.2419 1.18382L12.6425 3.84736L12.9208 3.92172C13.5214 4.0821 14.1018 4.32278 14.6456 4.63672L14.8949 4.78038L17.0249 3.21266L17.0619 3.1801C17.1785 3.0635 17.3474 3.03534 17.4304 3.11828L18.8808 4.56896C18.9237 4.61186 18.9297 4.67082 18.927 4.71284C18.9222 4.79292 18.8837 4.87278 18.819 4.93746L17.219 7.10446L17.3624 7.35372C17.6761 7.89668 17.917 8.47704 18.0778 9.07874L18.1522 9.35682L20.7662 9.75436L20.8157 9.75744C20.9807 9.75744 21.12 9.85666 21.12 9.97414V12.0254C21.12 12.1429 20.9807 12.2421 20.8157 12.2421L18.1524 12.6432Z"
        fill="#6A6A6A" />
</svg>