<svg width="27" height="13" viewBox="0 0 27 13" fill="none" xmlns="http://www.w3.org/2000/svg">
    <path
        d="M26.2194 6.32851C25.4274 4.56823 23.8402 3.01572 21.6763 1.8848L22.8936 1.06934C23.0589 0.957774 23.1517 0.806966 23.1517 0.649786C23.1517 0.492607 23.0589 0.341799 22.8936 0.230235C22.8127 0.175747 22.7165 0.132547 22.6105 0.103133C22.5045 0.0737181 22.3909 0.0586733 22.2761 0.0588685C22.1583 0.0564178 22.041 0.0703842 21.9317 0.0998829C21.8224 0.129382 21.7234 0.173769 21.641 0.230235L20.1766 1.21116L18.8798 2.07981L16.595 3.61028L15.3159 4.46712L10.4993 7.69353L9.22016 8.55036L6.6619 10.264L4.1742 11.9304C4.08991 11.9856 4.02365 12.0519 3.97961 12.1251C3.93558 12.1984 3.91472 12.277 3.91838 12.3559C3.91809 12.4327 3.94055 12.5088 3.98446 12.5799C4.02837 12.6509 4.09286 12.7153 4.1742 12.7695C4.34145 12.8793 4.56633 12.9409 4.80054 12.9409C5.03475 12.9409 5.25962 12.8793 5.42687 12.7695L6.89126 11.7886C8.90533 12.5808 11.1983 12.9989 13.5339 13C16.3804 12.9916 19.148 12.3725 21.431 11.2335C23.7139 10.0946 25.3921 8.49569 26.2194 6.67124C26.2635 6.55891 26.2635 6.44084 26.2194 6.32851ZM13.5339 10.0454C12.4363 10.0464 11.3658 9.81698 10.4728 9.38946L11.752 8.53263C12.2894 8.75029 12.9059 8.86476 13.5339 8.86355C13.9973 8.86363 14.4563 8.80255 14.8844 8.68379C15.3126 8.56504 15.7016 8.39093 16.0293 8.17143C16.357 7.95193 16.6169 7.69132 16.7942 7.40451C16.9715 7.1177 17.0627 6.8103 17.0626 6.49987C17.0644 6.07917 16.8935 5.66624 16.5686 5.30622L17.8477 4.44939C18.4107 4.9795 18.7449 5.60322 18.8136 6.25216C18.8823 6.90109 18.683 7.55017 18.2374 8.12822C17.7918 8.70627 17.1172 9.19096 16.2875 9.52914C15.4578 9.86732 14.5051 10.0459 13.5339 10.0454Z"
        fill="#C0C0C0" />
    <path
        d="M5.7151 9.72651L8.59976 7.79421C8.36223 7.38125 8.23965 6.94264 8.23807 6.5001C8.23918 5.56 8.79719 4.65862 9.78957 3.99387C10.782 3.32912 12.1276 2.95533 13.531 2.95459C14.1917 2.95562 14.8465 3.03774 15.463 3.19687L17.6772 1.71366L19.0181 0.815467C17.3001 0.278137 15.4271 -0.000226052 13.531 1.37736e-07C10.6845 0.0084111 7.91691 0.627473 5.63398 1.76642C3.35105 2.90537 1.6729 4.50428 0.845572 6.32873C0.801476 6.44107 0.801476 6.55913 0.845572 6.67146C1.51342 8.16197 2.75823 9.50754 4.45361 10.5715L5.7151 9.72651Z"
        fill="#C0C0C0" />
    <path
        d="M10.0002 6.50001C9.99844 6.61078 10.0102 6.72145 10.0355 6.83093L14.0228 4.15998C13.8594 4.14309 13.6942 4.13519 13.5288 4.13634C13.0654 4.13625 12.6065 4.19733 12.1783 4.31609C11.7501 4.43484 11.3611 4.60894 11.0334 4.82845C10.7057 5.04795 10.4458 5.30856 10.2685 5.59537C10.0912 5.88218 10 6.18959 10.0002 6.50001Z"
        fill="#C0C0C0" />
</svg>
    