<svg width="20" height="20" viewBox="0 0 31 31" fill="none" xmlns="http://www.w3.org/2000/svg">
    <path
        d="M26.4238 1.71486C28.084 3.37331 29.7586 5.62993 30.1302 7.7654C30.0742 12.2418 26.1823 17.1034 21.6824 21.5991C19.4539 23.8257 17.0416 26.0636 14.6612 27.6916C12.2809 29.3195 9.91388 30.41 7.65403 30.0671C5.65964 29.8507 3.20104 27.7542 1.70984 26.3501C0.726279 25.3631 0.801238 23.5309 1.70984 22.5912L5.50017 18.8044C6.67102 17.838 8.18933 17.883 9.41637 18.4971L11.9619 20.3695C12.6012 20.5983 13.3279 20.0235 13.7661 19.713C14.7947 18.9774 15.9771 17.8255 16.9271 16.8763C17.8936 15.9107 19.0633 14.8002 19.7943 13.8161C20.2747 13.2003 20.5752 12.539 20.4097 11.9018C19.7726 11.0209 19.0964 10.1281 18.4796 9.24678C17.9224 8.00188 17.9405 6.39393 18.8152 5.48793L22.5916 1.72906C23.8898 0.693816 25.1661 0.826884 26.4238 1.71486ZM23.8503 2.98638L20.0879 6.75929C19.7519 7.29896 19.8814 7.82059 20.06 8.39414L21.8502 10.8396C22.6829 12.308 22.0846 13.7377 21.2348 14.8918C20.3488 16.0846 19.1168 17.2035 18.1858 18.1337C17.2338 19.0848 16.0345 20.308 14.8151 21.18C13.6841 21.9807 12.0886 22.5965 10.8989 21.8087C10.0887 21.211 9.27663 20.6159 8.46525 20.0199C7.83675 19.7715 7.32722 19.7818 6.75889 20.0758L2.98255 23.8486C2.70867 24.2801 2.76102 24.6073 2.95454 25.0503C4.52867 26.2218 6.14233 27.954 7.93368 28.3061C9.3961 28.5216 11.4447 27.7212 13.6541 26.2102C15.87 24.6946 18.2171 22.5318 20.4096 20.3413C24.764 15.9909 28.2298 11.1896 28.3259 7.82101C28.0599 6.46211 26.8892 4.8145 25.1929 3.01412C24.6977 2.64107 24.3478 2.74514 23.8503 2.98638Z"
        fill="black" stroke="white" stroke-width="0.55594" />
</svg>
    