<svg xmlns="http://www.w3.org/2000/svg" width="25" height="22" viewBox="0 0 25 22" fill="none">
    <path d="M17.5041 2.88113L15.1773 5.10852L17.5041 7.3362V6.59902C17.5041 6.28778 17.7566 6.03528 18.0678 6.03528H18.6098C20.7362 6.03528 22.0432 7.38631 22.8316 9.2067C22.8589 8.95253 22.8728 8.70225 22.8728 8.45727C22.8728 5.73017 21.2417 4.18176 18.6098 4.18176H18.0678C17.7566 4.18176 17.5041 3.92954 17.5041 3.61802V2.88113ZM20.6393 7.92332V20.6783C20.6393 20.9895 20.3868 21.242 20.0755 21.242H1.56374C1.25222 21.242 1 20.9895 1 20.6783V5.10852C1 4.79728 1.25222 4.54478 1.56374 4.54478C5.75573 4.54478 9.948 4.54478 14.1403 4.54478L17.6497 1.18518C17.991 0.807401 18.6315 1.04403 18.6315 1.56323V3.05456C21.8703 3.06347 24 5.12133 24 8.45727C24 9.41437 23.8171 10.4414 23.4538 11.4811C23.2706 12.004 22.5089 11.9739 22.377 11.4282C22.0841 10.2264 21.5886 8.77491 20.6393 7.92332ZM14.1408 5.67226H13.2583V10.6609C13.2583 11.1489 12.6835 11.4328 12.3249 11.121L10.8196 8.65632L9.29267 11.121C8.91963 11.4141 8.36023 11.123 8.36079 10.6609L8.38095 5.67226H2.1272V20.1146H19.5118V7.28748C19.2434 7.20842 18.9508 7.16471 18.6315 7.16276L18.6299 8.65409C18.6301 9.14266 18.038 9.40547 17.678 9.05915L14.1408 5.67226ZM12.1309 5.67226H9.50842V9.05915L10.4644 7.50379C10.6643 7.34121 10.9566 7.3323 11.1676 7.49822L12.1309 9.05915V5.67226Z" fill="#1E1E1E" stroke="white" stroke-width="0.3"/>
    </svg>