<svg width="32" height="32" viewBox="0 0 32 32" fill="none" xmlns="http://www.w3.org/2000/svg">
<rect width="32" height="32" rx="7" fill="#1E1E1E"/>
<path d="M18.9231 9.82449C18.286 10.3736 18.6471 7.81637 21.5741 7.76113C24.5011 7.70588 24.9906 11.2582 24.9998 12.7838C25.0117 15.2824 24.3957 21.191 19.4205 21.0412C18.0943 21.0006 16.4612 20.3863 16.1621 16.8107V16.79C16.1621 16.5903 16.1818 13.3861 15.527 13.9133C14.8498 14.4577 14.4222 17.6979 14.1172 18.9719C13.8695 20.0075 12.7634 23.2264 9.9325 19.5163C9.9325 19.5163 9.57346 19.2927 10.4852 20.5627C11.397 21.8326 14.4874 24.0131 18.2188 23.3375C21.9503 22.662 23.8542 19.8232 23.8542 19.8232C23.8542 19.8232 24.2231 19.2701 24.6079 18.5485C24.6317 18.5039 24.6715 18.4701 24.7192 18.454C24.7546 18.4419 24.7927 18.4399 24.8292 18.4484C24.8657 18.4568 24.8991 18.4753 24.9258 18.5018C24.9525 18.5283 24.9714 18.5617 24.9804 18.5984C24.9894 18.6351 24.9881 18.6736 24.9768 18.7096C24.9708 18.7263 24.9643 18.7442 24.959 18.7629C24.1796 21.6915 20.968 23.673 20.968 23.673C20.968 23.673 16.8242 26.3228 12.3075 24.1336C7.79075 21.9444 7.16885 17.6187 7.16885 17.6187C7.16885 17.6187 6.42309 13.7822 8.06613 11.1464C9.70917 8.5106 10.2764 10.729 10.3482 11.3021C10.5267 12.7811 10.4312 16.5744 11.1388 17.2173C11.8114 17.8304 11.8542 16.6849 11.8562 16.5837V16.5677C11.8812 16.3234 12.515 10.5234 15.4736 7.39904C15.9348 6.91382 16.6595 6.31411 17.3282 9.32463C17.9968 12.3351 17.9995 13.4727 18.2669 14.8451C18.3987 15.5254 19.2617 18.3602 20.7816 15.9613C21.8402 14.2907 21.8146 12.8397 21.752 12.1614C21.7502 12.1537 21.7477 12.1461 21.7447 12.1388C21.7427 11.8419 20.8053 8.20176 18.9231 9.82449Z" fill="#FBFBFB"/>
</svg>