<svg width="24" height="22" viewBox="0 0 24 22" fill="none" xmlns="http://www.w3.org/2000/svg">
    <path d="M4.17725 14.8378L4.17721 14.8377C2.17876 12.4629 1.19101 9.98171 1.21868 7.2734L1.21868 7.27329C1.2524 4.03238 3.91613 1.4 7.15875 1.4C9.32935 1.4 10.8727 2.50001 11.818 3.484C12.7636 2.49912 14.307 1.4 16.4775 1.4C19.7201 1.4 22.3838 4.03242 22.4176 7.27376V7.27387C22.4452 9.98274 21.4564 12.4639 19.4591 14.8381L19.459 14.8383C18.5166 15.9578 16.8365 17.71 13.0146 20.2397C12.6606 20.4747 12.244 20.5997 11.8186 20.6H11.8174C11.3918 20.5995 10.975 20.4742 10.621 20.2388M4.17725 14.8378L10.6203 20.2384C10.6206 20.2385 10.6208 20.2387 10.621 20.2388M4.17725 14.8378C5.11956 15.9573 6.79952 17.7093 10.621 20.2388M4.17725 14.8378L10.621 20.2388" stroke="black" stroke-width="1.2"/>
    </svg>
    